<mxfile host="app.diagrams.net" modified="2024-03-29T10:05:53.349Z" agent="Mozilla/5.0 (Windows NT 10.0; Win64; x64) AppleWebKit/537.36 (KHTML, like Gecko) Chrome/123.0.0.0 Safari/537.36" etag="6adNFCvOiT_24ohHcKUH" version="24.1.0" type="github">
  <diagram name="第 1 页" id="nQ_k5-Ou8ycFwbC5H8_N">
    <mxGraphModel dx="581" dy="368" grid="1" gridSize="1" guides="1" tooltips="1" connect="1" arrows="1" fold="1" page="1" pageScale="1" pageWidth="827" pageHeight="1169" math="1" shadow="0">
      <root>
        <mxCell id="0" />
        <mxCell id="1" parent="0" />
        <mxCell id="wxN-_yclzLHITa2qNPS3-1" value="" style="endArrow=classicThin;html=1;rounded=0;endSize=2;strokeWidth=0.5;endFill=1;" edge="1" parent="1">
          <mxGeometry width="50" height="50" relative="1" as="geometry">
            <mxPoint x="32" y="160" as="sourcePoint" />
            <mxPoint x="176" y="160" as="targetPoint" />
          </mxGeometry>
        </mxCell>
        <mxCell id="wxN-_yclzLHITa2qNPS3-2" value="" style="endArrow=classicThin;html=1;rounded=0;endSize=2;strokeWidth=0.5;endFill=1;" edge="1" parent="1">
          <mxGeometry width="50" height="50" relative="1" as="geometry">
            <mxPoint x="48" y="176" as="sourcePoint" />
            <mxPoint x="48" y="56" as="targetPoint" />
          </mxGeometry>
        </mxCell>
        <mxCell id="wxN-_yclzLHITa2qNPS3-4" value="" style="curved=1;endArrow=none;html=1;rounded=0;endFill=0;endSize=6;strokeWidth=0.75;" edge="1" parent="1">
          <mxGeometry width="50" height="50" relative="1" as="geometry">
            <mxPoint x="84" y="116" as="sourcePoint" />
            <mxPoint x="84" y="116" as="targetPoint" />
            <Array as="points">
              <mxPoint x="72" y="116" />
              <mxPoint x="56" y="108" />
              <mxPoint x="68" y="80" />
              <mxPoint x="92" y="72" />
              <mxPoint x="92" y="96" />
              <mxPoint x="100" y="116" />
            </Array>
          </mxGeometry>
        </mxCell>
        <mxCell id="wxN-_yclzLHITa2qNPS3-5" value="" style="curved=1;endArrow=open;html=1;rounded=0;endSize=1;endFill=0;strokeWidth=0.5;" edge="1" parent="1">
          <mxGeometry width="50" height="50" relative="1" as="geometry">
            <mxPoint x="104" y="100" as="sourcePoint" />
            <mxPoint x="120" y="108" as="targetPoint" />
            <Array as="points">
              <mxPoint x="116" y="100" />
            </Array>
          </mxGeometry>
        </mxCell>
        <mxCell id="wxN-_yclzLHITa2qNPS3-7" value="" style="curved=1;endArrow=none;html=1;rounded=0;endFill=0;endSize=6;strokeWidth=0.75;" edge="1" parent="1">
          <mxGeometry width="50" height="50" relative="1" as="geometry">
            <mxPoint x="152" y="144" as="sourcePoint" />
            <mxPoint x="152" y="144" as="targetPoint" />
            <Array as="points">
              <mxPoint x="140" y="148" />
              <mxPoint x="120" y="132" />
              <mxPoint x="116" y="112" />
              <mxPoint x="146" y="114" />
              <mxPoint x="160" y="112" />
              <mxPoint x="156" y="132" />
              <mxPoint x="164" y="140" />
            </Array>
          </mxGeometry>
        </mxCell>
        <mxCell id="wxN-_yclzLHITa2qNPS3-9" value="&lt;font style=&quot;font-size: 8px;&quot;&gt;\(g^t\)&lt;/font&gt;" style="text;html=1;align=center;verticalAlign=middle;whiteSpace=wrap;rounded=0;" vertex="1" parent="1">
          <mxGeometry x="109" y="87" width="16" height="14" as="geometry" />
        </mxCell>
        <mxCell id="wxN-_yclzLHITa2qNPS3-10" value="&lt;font style=&quot;font-size: 8px;&quot;&gt;\(D\)&lt;/font&gt;" style="text;html=1;align=center;verticalAlign=middle;whiteSpace=wrap;rounded=0;" vertex="1" parent="1">
          <mxGeometry x="71" y="91" width="16" height="14" as="geometry" />
        </mxCell>
        <mxCell id="wxN-_yclzLHITa2qNPS3-11" value="&lt;font style=&quot;font-size: 8px;&quot;&gt;\(g^tD\)&lt;/font&gt;" style="text;html=1;align=center;verticalAlign=middle;whiteSpace=wrap;rounded=0;" vertex="1" parent="1">
          <mxGeometry x="133" y="121" width="16" height="14" as="geometry" />
        </mxCell>
      </root>
    </mxGraphModel>
  </diagram>
</mxfile>
